# xmcd
#
# Track frame offsets: 
#        150
#        19468
#        31336
#        35583
#        60408
#        79304
#        104383
#        122288
#        146225
#        162463
#        187468
#
# Disc length: 2920 seconds
#
# Revision: 7
# Processed by: cddbd v1.5.2PL0 Copyright (c) Steve Scherf et al.
# Submitted via: ExactAudioCopyFreeDBPlugin 1.0
#
DISCID=9d0b660b
DTITLE=My Bloody Valentine - Loveless [CD 1: Remastered from Original 
DTITLE=1-2 Inch Analogue Tapes)
DYEAR=1991
DGENRE=Alternative
TTITLE0=Only Shallow
TTITLE1=Loomer
TTITLE2=Touched
TTITLE3=To Here Knows When
TTITLE4=When You Sleep
TTITLE5=I Only Said
TTITLE6=Come in Alone
TTITLE7=Sometimes
TTITLE8=Blown a Wish
TTITLE9=What You Want
TTITLE10=Soon
EXTD=YEAR: 1991
EXTT0=
EXTT1=
EXTT2=
EXTT3=
EXTT4=
EXTT5=
EXTT6=
EXTT7=
EXTT8=
EXTT9=
EXTT10=
PLAYORDER=
